<mxfile host="" modified="2020-12-25T11:55:19.242Z" agent="5.0 (Windows NT 6.2; Win64; x64) AppleWebKit/537.36 (KHTML, like Gecko) Chrome/84.0.4147.105 Safari/537.36" etag="8ir6v6LakUoCnMc9Su0_" version="13.7.9" type="embed"><diagram id="07BHA1QRkcUh8rip9cGy" name="第 1 页"><mxGraphModel dx="1379" dy="707" grid="1" gridSize="10" guides="1" tooltips="1" connect="1" arrows="1" fold="1" page="1" pageScale="1" pageWidth="1169" pageHeight="827" math="0" shadow="0"><root><mxCell id="0"/><mxCell id="1" parent="0"/><mxCell id="2" value="" style="rounded=0;whiteSpace=wrap;html=1;" parent="1" vertex="1"><mxGeometry x="647.5" y="130" width="120" height="190" as="geometry"/></mxCell><mxCell id="3" value="&lt;font style=&quot;font-size: 18px&quot;&gt;(Call Stack)调用栈&lt;/font&gt;" style="text;html=1;strokeColor=none;fillColor=none;align=center;verticalAlign=middle;whiteSpace=wrap;rounded=0;" parent="1" vertex="1"><mxGeometry x="620" y="80" width="170" height="50" as="geometry"/></mxCell><mxCell id="4" value="" style="rounded=0;whiteSpace=wrap;html=1;" parent="1" vertex="1"><mxGeometry x="647.5" y="410" width="510" height="60" as="geometry"/></mxCell><mxCell id="6" value="&lt;font style=&quot;font-size: 18px&quot;&gt;(Task Queue)任务队列&lt;/font&gt;" style="text;html=1;strokeColor=none;fillColor=none;align=center;verticalAlign=middle;whiteSpace=wrap;rounded=0;" parent="1" vertex="1"><mxGeometry x="637.5" y="360" width="210" height="50" as="geometry"/></mxCell><mxCell id="7" value="" style="rounded=0;whiteSpace=wrap;html=1;" parent="1" vertex="1"><mxGeometry x="777.5" y="130" width="190" height="190" as="geometry"/></mxCell><mxCell id="9" value="&lt;span style=&quot;font-size: 18px&quot;&gt;(WebAPI) 内部API&lt;/span&gt;" style="text;html=1;strokeColor=none;fillColor=none;align=center;verticalAlign=middle;whiteSpace=wrap;rounded=0;" parent="1" vertex="1"><mxGeometry x="797.5" y="80" width="170" height="50" as="geometry"/></mxCell><mxCell id="11" value="&lt;font style=&quot;font-size: 18px&quot;&gt;最终输出&lt;/font&gt;" style="text;html=1;strokeColor=none;fillColor=none;align=center;verticalAlign=middle;whiteSpace=wrap;rounded=0;" vertex="1" parent="1"><mxGeometry x="1027.5" y="97.5" width="80" height="15" as="geometry"/></mxCell><mxCell id="12" value="" style="rounded=0;whiteSpace=wrap;html=1;" vertex="1" parent="1"><mxGeometry x="987.5" y="130" width="170" height="190" as="geometry"/></mxCell><mxCell id="14" value="&lt;pre style=&quot;background-color: #282a36 ; color: #f8f8f2 ; font-family: &amp;#34;jetbrains mono&amp;#34; , monospace ; font-size: 10.5pt&quot;&gt;&lt;span style=&quot;color: #6272a4 ; font-style: italic&quot;&gt;Hi!&lt;/span&gt;&lt;/pre&gt;" style="text;html=1;strokeColor=none;fillColor=none;align=center;verticalAlign=middle;whiteSpace=wrap;rounded=0;" vertex="1" parent="1"><mxGeometry x="987.5" y="140" width="190" height="20" as="geometry"/></mxCell><mxCell id="24" value="&lt;pre style=&quot;background-color: rgb(40 , 42 , 54)&quot;&gt;&lt;font color=&quot;#6272a4&quot; face=&quot;jetbrains mono, monospace&quot;&gt;&lt;span style=&quot;font-size: 14px&quot;&gt;&lt;i&gt;hello yzl&lt;/i&gt;&lt;/span&gt;&lt;/font&gt;&lt;/pre&gt;" style="text;html=1;strokeColor=none;fillColor=none;align=center;verticalAlign=middle;whiteSpace=wrap;rounded=0;" vertex="1" parent="1"><mxGeometry x="932.5" y="170" width="280" height="20" as="geometry"/></mxCell><mxCell id="25" value="&lt;pre style=&quot;background-color: rgb(40 , 42 , 54)&quot;&gt;&lt;font color=&quot;#6272a4&quot; face=&quot;jetbrains mono, monospace&quot;&gt;&lt;span style=&quot;font-size: 14px&quot;&gt;&lt;i&gt;setTimeout Finish&lt;/i&gt;&lt;/span&gt;&lt;/font&gt;&lt;font color=&quot;#f8f8f2&quot; face=&quot;jetbrains mono, monospace&quot;&gt;&lt;span style=&quot;font-size: 10.5pt&quot;&gt;&lt;br&gt;&lt;/span&gt;&lt;/font&gt;&lt;/pre&gt;" style="text;html=1;strokeColor=none;fillColor=none;align=center;verticalAlign=middle;whiteSpace=wrap;rounded=0;" vertex="1" parent="1"><mxGeometry x="987.5" y="200" width="190" height="20" as="geometry"/></mxCell></root></mxGraphModel></diagram></mxfile>